<svg version="1.1" id="Layer_1" xmlns="http://www.w3.org/2000/svg" xmlns:xlink="http://www.w3.org/1999/xlink" x="0px" y="0px"
	 width="100%" viewBox="0 0 500 500" enable-background="new 0 0 500 500" xml:space="preserve">
<path fill="#010101" opacity="1.000000" stroke="none" 
	d="
M343.000000,501.000000 
	C228.666687,501.000000 114.833389,501.000000 1.000061,501.000000 
	C1.000041,334.333405 1.000041,167.666794 1.000020,1.000151 
	C167.666565,1.000100 334.333130,1.000100 500.999756,1.000050 
	C500.999847,167.666519 500.999847,334.333038 500.999939,500.999786 
	C448.500000,501.000000 396.000000,501.000000 343.000000,501.000000 
M278.161865,338.500061 
	C278.490540,354.265533 278.664368,370.036499 279.221741,385.793884 
	C279.455078,392.391113 284.039642,396.363281 289.724701,398.358459 
	C295.426300,400.359436 300.605530,398.351288 304.906281,394.046387 
	C348.712646,350.197845 392.426117,306.255096 436.492645,262.669434 
	C442.939026,256.293457 442.643097,245.372055 436.495850,239.382004 
	C413.949066,217.411774 391.905579,194.925446 369.645813,172.660202 
	C347.972321,150.981369 326.195007,129.405716 304.618134,107.631302 
	C298.338379,101.294037 286.901093,101.619896 282.069794,109.277588 
	C279.579895,113.224113 278.447693,118.545937 278.242859,123.312553 
	C277.742615,134.952423 278.151642,146.630844 278.172150,158.293777 
	C278.189606,168.224045 278.175751,178.154373 278.175751,188.394547 
	C275.302490,188.394547 273.149719,188.395126 270.996918,188.394455 
	C238.346283,188.384277 205.693756,188.167023 173.045914,188.463821 
	C159.682358,188.585297 153.626770,194.201599 153.385620,206.904068 
	C152.829071,236.220139 152.919327,265.558014 153.344086,294.878387 
	C153.510056,306.335052 159.061264,313.510010 172.907333,313.590790 
	C201.052277,313.754944 229.199020,313.607422 257.345032,313.590332 
	C264.239471,313.586182 271.133881,313.589722 278.216766,313.589722 
	C278.216766,322.191986 278.216766,329.846558 278.161865,338.500061 
M91.032875,188.499817 
	C91.018715,179.837555 91.187195,171.170334 90.952942,162.514023 
	C90.441765,143.623779 109.146172,125.781265 127.362602,126.027412 
	C153.015091,126.374039 178.675705,126.129143 204.332840,126.115822 
	C212.031891,126.111832 213.825012,124.828888 215.382935,117.192139 
	C216.069763,113.825378 216.177307,110.249184 215.956863,106.805908 
	C215.324829,96.933662 213.542450,95.467758 204.298447,94.668587 
	C201.983566,94.468468 199.635712,94.620697 197.303604,94.653679 
	C173.382294,94.991959 149.458145,95.202690 125.540657,95.720329 
	C99.389961,96.286316 81.482872,110.415810 68.329552,131.649673 
	C61.048824,143.403214 59.817085,156.825943 59.525578,170.238251 
	C59.218006,184.389618 59.379749,198.553345 59.470482,212.710815 
	C59.744545,255.474457 59.950970,298.239227 60.449257,341.000427 
	C60.729355,365.037781 73.453705,382.181396 92.072144,395.770538 
	C103.769012,404.307831 117.461082,406.824982 131.325562,407.156372 
	C156.298523,407.753265 181.296249,407.371277 206.283157,407.275024 
	C211.069199,407.256592 214.592407,405.193024 215.006302,399.807739 
	C215.360046,395.204956 216.117950,390.577515 215.885361,386.002258 
	C215.683731,382.035980 215.022491,377.582184 209.613937,376.967621 
	C205.533112,376.503998 201.429581,375.969452 197.334000,375.951202 
	C173.354919,375.844269 149.374176,376.010742 125.396027,375.823395 
	C108.385948,375.690521 91.096130,358.317993 91.068085,341.429230 
	C90.983978,290.786224 91.023361,240.142975 91.032875,188.499817 
z"/>
<path fill="#FDFDFD" opacity="1.000000" stroke="none" 
	d="
M278.189331,338.000610 
	C278.216766,329.846558 278.216766,322.191986 278.216766,313.589722 
	C271.133881,313.589722 264.239471,313.586182 257.345032,313.590332 
	C229.199020,313.607422 201.052277,313.754944 172.907333,313.590790 
	C159.061264,313.510010 153.510056,306.335052 153.344086,294.878387 
	C152.919327,265.558014 152.829071,236.220139 153.385620,206.904068 
	C153.626770,194.201599 159.682358,188.585297 173.045914,188.463821 
	C205.693756,188.167023 238.346283,188.384277 270.996918,188.394455 
	C273.149719,188.395126 275.302490,188.394547 278.175751,188.394547 
	C278.175751,178.154373 278.189606,168.224045 278.172150,158.293777 
	C278.151642,146.630844 277.742615,134.952423 278.242859,123.312553 
	C278.447693,118.545937 279.579895,113.224113 282.069794,109.277588 
	C286.901093,101.619896 298.338379,101.294037 304.618134,107.631302 
	C326.195007,129.405716 347.972321,150.981369 369.645813,172.660202 
	C391.905579,194.925446 413.949066,217.411774 436.495850,239.382004 
	C442.643097,245.372055 442.939026,256.293457 436.492645,262.669434 
	C392.426117,306.255096 348.712646,350.197845 304.906281,394.046387 
	C300.605530,398.351288 295.426300,400.359436 289.724701,398.358459 
	C284.039642,396.363281 279.455078,392.391113 279.221741,385.793884 
	C278.664368,370.036499 278.490540,354.265533 278.189331,338.000610 
z"/>
<path fill="#FCFCFC" opacity="1.000000" stroke="none" 
	d="
M91.023712,188.999817 
	C91.023361,240.142975 90.983978,290.786224 91.068085,341.429230 
	C91.096130,358.317993 108.385948,375.690521 125.396027,375.823395 
	C149.374176,376.010742 173.354919,375.844269 197.334000,375.951202 
	C201.429581,375.969452 205.533112,376.503998 209.613937,376.967621 
	C215.022491,377.582184 215.683731,382.035980 215.885361,386.002258 
	C216.117950,390.577515 215.360046,395.204956 215.006302,399.807739 
	C214.592407,405.193024 211.069199,407.256592 206.283157,407.275024 
	C181.296249,407.371277 156.298523,407.753265 131.325562,407.156372 
	C117.461082,406.824982 103.769012,404.307831 92.072144,395.770538 
	C73.453705,382.181396 60.729355,365.037781 60.449257,341.000427 
	C59.950970,298.239227 59.744545,255.474457 59.470482,212.710815 
	C59.379749,198.553345 59.218006,184.389618 59.525578,170.238251 
	C59.817085,156.825943 61.048824,143.403214 68.329552,131.649673 
	C81.482872,110.415810 99.389961,96.286316 125.540657,95.720329 
	C149.458145,95.202690 173.382294,94.991959 197.303604,94.653679 
	C199.635712,94.620697 201.983566,94.468468 204.298447,94.668587 
	C213.542450,95.467758 215.324829,96.933662 215.956863,106.805908 
	C216.177307,110.249184 216.069763,113.825378 215.382935,117.192139 
	C213.825012,124.828888 212.031891,126.111832 204.332840,126.115822 
	C178.675705,126.129143 153.015091,126.374039 127.362602,126.027412 
	C109.146172,125.781265 90.441765,143.623779 90.952942,162.514023 
	C91.187195,171.170334 91.018715,179.837555 91.023712,188.999817 
z"/>
</svg>